<svg xmlns="http://www.w3.org/2000/svg" version="1.1" xmlns:xlink="http://www.w3.org/1999/xlink" xmlns:svgjs="http://svgjs.dev/svgjs" width="100%" height="100%" viewBox="0 0 1000 600"><rect width="1000" height="600" x="0" y="0" fill="#191919"/><g><circle r="166.66666666666666" cx="443.89371744791663" cy="466.1159193516895" fill="#b88746" transform="matrix(0.4508939170051367,0,0,0.4508939170051367,0,89.83114981564566)"/><path d="M450.3597865041835 443.1797631358076L450.3597865041835 443.1797631358076L450.3597865041835 494.32860381068787Q450.3597865041835 523.9748012680425 454.538314335107 537.8218934960662L454.538314335107 537.8218934960662Q450.6037881293469 539.5909052785008 444.22924567195275 539.5909052785008Q437.85470321455864 539.5909052785008 435.6586885880879 536.7238861828307Q433.46267396161716 533.8568670871607 433.46267396161716 527.0553217857305L433.46267396161716 527.0553217857305Q433.46267396161716 525.5303116284592 433.5846747741989 511.6832194004356Q433.67617538363515 497.86662737555736 433.7981761962169 472.2769569365445Q433.88967680565315 446.68728649753166 433.88967680565315 416.37008457097767L433.88967680565315 416.37008457097767Q413.6985423233808 456.9963551606858 389.755882854221 538.4928979652655L389.755882854221 538.4928979652655Q387.1328653837143 539.3469036533374 383.83884344400826 539.3469036533374L383.83884344400826 539.3469036533374Q375.2682863601434 539.3469036533374 372.85877031165467 533.6433656651427L372.85877031165467 533.6433656651427Q367.5822351674959 521.7787866415717 352.9726378608366 480.84751402040933Q338.3630405541773 439.8857411961015 326.95596457778777 416.82758761815904L326.95596457778777 416.82758761815904L326.95596457778777 494.32860381068787Q326.95596457778777 523.9748012680425 331.1344924087112 537.8218934960662L331.1344924087112 537.8218934960662Q327.16946599980577 539.5909052785008 322.99093816888234 539.5909052785008L322.99093816888234 539.5909052785008Q316.6468959146336 539.5909052785008 314.4508812881629 536.7238861828307Q312.2548666616922 533.8568670871607 312.2548666616922 527.0553217857305L312.2548666616922 527.0553217857305Q312.2548666616922 523.5477984240065 312.4683680837102 509.70070619598283Q312.6818695057282 495.8841141711046 312.6818695057282 488.19806297845713L312.6818695057282 488.19806297845713L312.6818695057282 432.840194269508Q312.6818695057282 408.2570305342942 308.5033416748047 394.19643688425253L308.5033416748047 394.19643688425253Q315.54888860139823 392.4579253049633 321.25242658959303 392.4579253049633L321.25242658959303 392.4579253049633Q330.4634879395118 392.4579253049633 336.838030396906 402.9804953901354L336.838030396906 402.9804953901354Q345.40858748077085 417.9255949313944 354.19264598665364 439.4282381489201Q362.9767044925365 460.96138156959125 367.9177374020956 475.78448029826853Q372.85877031165467 490.6075790269458 381.8563302395555 518.728766327029L381.8563302395555 518.728766327029Q388.65787554098563 491.4920849181632 400.18695232995685 459.8633742563559Q411.7160291189281 428.2346635945486 425.99012419098773 402.9804953901354L425.99012419098773 402.9804953901354Q431.9376638043459 392.4579253049633 442.03323104548207 392.4579253049633L442.03323104548207 392.4579253049633Q449.50578081611155 392.4579253049633 454.324812913089 394.19643688425253L454.324812913089 394.19643688425253Q450.3597865041835 407.3725246430768 450.3597865041835 443.1797631358076ZM518.2227385027576 404.53600575055214L518.2227385027576 404.53600575055214Q512.9462033585987 404.53600575055214 503.308139164644 405.39001143862413L503.308139164644 405.39001143862413Q504.1621448527159 423.84263434160715 504.1621448527159 454.8003405342151L504.1621448527159 454.8003405342151Q511.2076917793094 455.25784358139646 516.2402252983048 455.25784358139646L516.2402252983048 455.25784358139646Q557.1104975131764 455.25784358139646 557.1104975131764 430.2171767990013L557.1104975131764 430.2171767990013Q557.1104975131764 404.53600575055214 518.2227385027576 404.53600575055214ZM528.7758087910751 527.72632625493L528.7758087910751 527.72632625493Q543.0499038631348 527.72632625493 552.7184682602349 519.7047728276827Q562.3565324541897 511.6832194004356 562.3565324541897 497.86662737555736L562.3565324541897 497.86662737555736Q562.3565324541897 482.4945249902624 551.4984601344179 474.3509707504335Q540.640387814646 466.23791671375005 524.8107823821697 466.23791671375005L524.8107823821697 466.23791671375005Q510.53668731011004 466.23791671375005 503.9486434306979 467.3359240269854L503.9486434306979 467.3359240269854Q503.9486434306979 484.9040410387511 501.11212453817325 519.8267736402645L501.11212453817325 519.8267736402645Q505.26015216595124 523.1207955799705 513.2817055931985 525.4083108158775Q521.3032590204456 527.72632625493 528.7758087910751 527.72632625493ZM484.18451179246154 527.2688232077485L484.18451179246154 527.2688232077485Q487.6920351541856 502.2586566284988 487.6920351541856 453.94633484614315L487.6920351541856 453.94633484614315Q487.6920351541856 413.0760626312716 484.8555162616609 393.7694340402166L484.8555162616609 393.7694340402166Q501.11212453817325 391.11591636656453 519.7782488631743 391.11591636656453L519.7782488631743 391.11591636656453Q543.6904081291887 391.11591636656453 558.8490090924656 399.89997487244733Q574.0076100557427 408.6840333783302 574.0076100557427 428.90566806374795L574.0076100557427 428.90566806374795Q574.0076100557427 450.8658143284551 554.9144828867056 459.43637141231994L554.9144828867056 459.43637141231994Q579.2841451999014 469.7454400754741 579.2841451999014 496.98212148434L579.2841451999014 496.98212148434Q579.2841451999014 517.8442604358117 565.7725552064775 529.4648378342192Q552.2609652130536 541.1159154357722 532.7103349968352 541.1159154357722L532.7103349968352 541.1159154357722Q500.86812291300987 541.1159154357722 484.18451179246154 527.2688232077485Z " fill="#191919" transform="matrix(0.4508939170051367,0,0,0.4508939170051367,0,89.83114981564566)"/><path d="M835.7501826223476 443.1797631358076L835.7501826223476 443.1797631358076L835.7501826223476 494.32860381068787Q835.7501826223476 523.9748012680425 839.928710453271 537.8218934960662L839.928710453271 537.8218934960662Q835.9941842475109 539.5909052785008 829.6196417901168 539.5909052785008Q823.2450993327226 539.5909052785008 821.049084706252 536.7238861828307Q818.8530700797812 533.8568670871607 818.8530700797812 527.0553217857305L818.8530700797812 527.0553217857305Q818.8530700797812 525.5303116284592 818.975070892363 511.6832194004356Q819.0665715017992 497.86662737555736 819.1885723143808 472.2769569365445Q819.2800729238172 446.68728649753166 819.2800729238172 416.37008457097767L819.2800729238172 416.37008457097767Q799.0889384415449 456.9963551606858 775.1462789723851 538.4928979652655L775.1462789723851 538.4928979652655Q772.5232615018783 539.3469036533374 769.2292395621723 539.3469036533374L769.2292395621723 539.3469036533374Q760.6586824783074 539.3469036533374 758.2491664298187 533.6433656651427L758.2491664298187 533.6433656651427Q752.9726312856599 521.7787866415717 738.3630339790006 480.84751402040933Q723.7534366723413 439.8857411961015 712.3463606959518 416.82758761815904L712.3463606959518 416.82758761815904L712.3463606959518 494.32860381068787Q712.3463606959518 523.9748012680425 716.5248885268752 537.8218934960662L716.5248885268752 537.8218934960662Q712.5598621179697 539.5909052785008 708.3813342870463 539.5909052785008L708.3813342870463 539.5909052785008Q702.0372920327976 539.5909052785008 699.841277406327 536.7238861828307Q697.6452627798562 533.8568670871607 697.6452627798562 527.0553217857305L697.6452627798562 527.0553217857305Q697.6452627798562 523.5477984240065 697.8587642018742 509.70070619598283Q698.0722656238922 495.8841141711046 698.0722656238922 488.19806297845713L698.0722656238922 488.19806297845713L698.0722656238922 432.840194269508Q698.0722656238922 408.2570305342942 693.8937377929688 394.19643688425253L693.8937377929688 394.19643688425253Q700.9392847195622 392.4579253049633 706.642822707757 392.4579253049633L706.642822707757 392.4579253049633Q715.8538840576758 392.4579253049633 722.2284265150699 402.9804953901354L722.2284265150699 402.9804953901354Q730.7989835989349 417.9255949313944 739.5830421048177 439.4282381489201Q748.3671006107005 460.96138156959125 753.3081335202596 475.78448029826853Q758.2491664298187 490.6075790269458 767.2467263577196 518.728766327029L767.2467263577196 518.728766327029Q774.0482716591497 491.4920849181632 785.5773484481209 459.8633742563559Q797.1064252370921 428.2346635945486 811.3805203091517 402.9804953901354L811.3805203091517 402.9804953901354Q817.3280599225099 392.4579253049633 827.4236271636461 392.4579253049633L827.4236271636461 392.4579253049633Q834.8961769342756 392.4579253049633 839.715209031253 394.19643688425253L839.715209031253 394.19643688425253Q835.7501826223476 407.3725246430768 835.7501826223476 443.1797631358076ZM945.7949155710465 432.62669284749L945.7949155710465 432.62669284749Q945.7949155710465 437.9032279916488 933.2593320782762 455.89834784745045Q920.7542487886512 473.92396790639754 909.5606742342798 486.8865542432038L909.5606742342798 486.8865542432038L909.5606742342798 503.35666394173415Q909.5606742342798 526.6283189416945 912.8546961739859 538.0353949180841L912.8546961739859 538.0353949180841Q909.5606742342798 539.3469036533374 903.1861317768856 539.3469036533374L903.1861317768856 539.3469036533374Q897.2385921635274 539.3469036533374 895.2865791622202 537.1508890268667Q893.3040659577674 534.954874400396 893.3040659577674 529.7088394593827L893.3040659577674 529.7088394593827Q893.3040659577674 529.0378349901832 893.3955665672037 517.935761045248Q893.5175673797854 506.8641873034582 893.5175673797854 499.39163753282867L893.5175673797854 499.39163753282867L893.5175673797854 487.74055993127575Q867.8363963313362 442.08175582257223 854.4163069473486 433.5111987387074L854.4163069473486 433.5111987387074Q861.8888567179781 424.7271402328245 867.5923947061729 424.7271402328245L867.5923947061729 424.7271402328245Q873.0824312723496 424.7271402328245 877.2609591032731 430.64417964303726L877.2609591032731 430.64417964303726Q890.8945499092787 449.7678070152197 904.2841390901209 474.8084737976149L904.2841390901209 474.8084737976149Q913.0681975960039 462.730393352026 921.6387546798686 446.26028365349566Q930.1788115605881 429.7901739549653 930.6363146077695 423.84263434160715L930.6363146077695 423.84263434160715Q945.7949155710465 424.7271402328245 945.7949155710465 432.62669284749ZM996.7302548239087 404.53600575055214L996.7302548239087 404.53600575055214Q991.45371967975 404.53600575055214 981.7851552826497 405.39001143862413L981.7851552826497 405.39001143862413Q982.6696611738672 423.84263434160715 982.6696611738672 454.8003405342151L982.6696611738672 454.8003405342151Q989.7152081004607 455.25784358139646 994.7477416194561 455.25784358139646L994.7477416194561 455.25784358139646Q1035.587513631182 455.25784358139646 1035.587513631182 430.2171767990013L1035.587513631182 430.2171767990013Q1035.587513631182 404.53600575055214 996.7302548239087 404.53600575055214ZM1007.2833251122264 527.72632625493L1007.2833251122264 527.72632625493Q1021.5574201842859 527.72632625493 1031.1954843782407 519.7047728276827Q1040.864048775341 511.6832194004356 1040.864048775341 497.86662737555736L1040.864048775341 497.86662737555736Q1040.864048775341 482.4945249902624 1030.005976455569 474.3509707504335Q1019.1174039326519 466.23791671375005 1003.3182987033209 466.23791671375005L1003.3182987033209 466.23791671375005Q989.0442036312612 466.23791671375005 982.4561597518492 467.3359240269854L982.4561597518492 467.3359240269854Q982.4561597518492 484.9040410387511 979.589140656179 519.8267736402645L979.589140656179 519.8267736402645Q983.7676684871025 523.1207955799705 991.7892219143497 525.4083108158775Q999.8107753415968 527.72632625493 1007.2833251122264 527.72632625493ZM962.6920281136128 527.2688232077485L962.6920281136128 527.2688232077485Q966.1995514753368 502.2586566284988 966.1995514753368 453.94633484614315L966.1995514753368 453.94633484614315Q966.1995514753368 413.0760626312716 963.3630325828121 393.7694340402166L963.3630325828121 393.7694340402166Q979.589140656179 391.11591636656453 998.2552649811802 391.11591636656453L998.2552649811802 391.11591636656453Q1022.1979244503399 391.11591636656453 1037.356525413617 399.89997487244733Q1052.515126376894 408.6840333783302 1052.515126376894 428.90566806374795L1052.515126376894 428.90566806374795Q1052.515126376894 450.8658143284551 1033.3914990047115 459.43637141231994L1033.3914990047115 459.43637141231994Q1057.7916615210527 469.7454400754741 1057.7916615210527 496.98212148434L1057.7916615210527 496.98212148434Q1057.7916615210527 517.8442604358117 1044.2800715276287 529.4648378342192Q1030.768481534205 541.1159154357722 1011.2178513179864 541.1159154357722L1011.2178513179864 541.1159154357722Q979.375639234161 541.1159154357722 962.6920281136128 527.2688232077485ZM1086.5533530871899 426.2521503900959L1086.5533530871899 426.2521503900959Q1090.4878792929499 424.9406416548425 1095.7644144371088 424.9406416548425L1095.7644144371088 424.9406416548425Q1101.7119540504668 424.9406416548425 1104.4569723335553 426.92315485929527Q1107.2019906166438 428.90566806374795 1107.2019906166438 433.7247001607254L1107.2019906166438 433.7247001607254Q1107.2019906166438 440.98374850933686 1105.7684810688088 465.5669122445507Q1104.3349715209736 490.1805761829099 1104.3349715209736 503.9971682077881L1104.3349715209736 503.9971682077881Q1104.3349715209736 515.648245809341 1111.1365168224038 521.5652852195537Q1117.9380621238338 527.512824832912 1127.179623676898 527.512824832912L1127.179623676898 527.512824832912Q1135.5061791355993 527.512824832912 1144.7477406886637 523.5477984240065Q1153.9588020385827 519.582772015101 1159.6623400267772 514.3367370740878L1159.6623400267772 514.3367370740878Q1159.6623400267772 513.2387297608523 1159.7843408393592 508.7246996953292Q1159.9063416519407 504.2106696298061 1159.9063416519407 493.2305964974525Q1159.9063416519407 482.25052336509896 1159.9063416519407 465.1399094005147L1159.9063416519407 465.1399094005147Q1159.9063416519407 442.29525724459023 1158.5643327135417 425.6116461240419L1158.5643327135417 425.6116461240419Q1162.1023562784112 424.9406416548425 1167.1348897974067 424.9406416548425L1167.1348897974067 424.9406416548425Q1177.230457038543 424.9406416548425 1177.230457038543 431.52868553425463L1177.230457038543 431.52868553425463Q1177.230457038543 431.74218695627263 1176.9254550070887 437.7812271790671Q1176.5899527724891 443.82026740186154 1176.1324497253077 456.5693523166498Q1175.7054468812717 469.3184372314381 1175.7054468812717 486.00204835198645L1175.7054468812717 486.00204835198645Q1175.7054468812717 512.567725291653 1176.2544505378892 521.5652852195537Q1176.8034541945071 530.5628451474546 1179.2129702429957 538.2488963401021L1179.2129702429957 538.2488963401021Q1175.4919454592537 539.3469036533374 1169.5444058458954 539.3469036533374L1169.5444058458954 539.3469036533374Q1163.8408678577007 539.3469036533374 1161.6448532312302 537.2728898394485Q1159.4488386047592 535.1988760255595 1159.4488386047592 529.4648378342192L1159.4488386047592 529.4648378342192L1159.4488386047592 526.8418203637125Q1152.2202904592932 532.7588597739252 1142.3382246401752 536.601885370249Q1132.4561588210568 540.4449109665727 1124.09910315921 540.4449109665727L1124.09910315921 540.4449109665727Q1107.4154920386618 540.4449109665727 1097.6249268289798 533.0028613990887Q1087.8648618224433 525.5303116284592 1087.8648618224433 506.1931828342588L1087.8648618224433 506.1931828342588Q1087.8648618224433 496.0976155931226 1088.6273669010789 478.86500081595665Q1089.3898719797144 461.6323860387906 1089.3898719797144 453.27533037694377L1089.3898719797144 453.27533037694377Q1089.3898719797144 436.5917192563955 1086.5533530871899 426.2521503900959ZM1290.1117088797664 514.0927354489243L1290.1117088797664 514.0927354489243Q1298.6822659636314 517.6307590137937 1298.6822659636314 523.9748012680425L1298.6822659636314 523.9748012680425Q1298.6822659636314 530.5628451474546 1288.3731973004774 535.5038780570137Q1278.0336284341777 540.4449109665727 1262.4480246268647 540.4449109665727L1262.4480246268647 540.4449109665727Q1236.7668535784155 540.4449109665727 1221.150749567957 524.4323043152239Q1205.565145760644 508.3891974607295 1205.565145760644 482.25052336509896L1205.565145760644 482.25052336509896Q1205.565145760644 454.8003405342151 1221.059248958521 439.33673753948386Q1236.522851953252 423.84263434160715 1263.332530518082 423.84263434160715L1263.332530518082 423.84263434160715Q1277.6066255901417 423.84263434160715 1287.275189987242 429.24117029834764Q1296.9132541811969 434.60920605194275 1296.9132541811969 442.50875866660823L1296.9132541811969 442.50875866660823Q1296.9132541811969 450.6523129064371 1284.835173735608 452.6043259077444L1284.835173735608 452.6043259077444Q1281.785153421065 444.4912718710609 1274.6481058850354 440.22124343070124Q1267.5110583490055 435.92071478719606 1259.5810055311945 435.92071478719606L1259.5810055311945 435.92071478719606Q1243.5683988798455 435.92071478719606 1233.228830013546 448.21229665480297Q1222.9197613503918 460.53437872555526 1222.9197613503918 478.7430000033749L1222.9197613503918 478.7430000033749Q1222.9197613503918 500.06264200202804 1233.228830013546 514.3367370740878Q1243.5683988798455 528.6108321461472 1262.2345232048467 528.6108321461472L1262.2345232048467 528.6108321461472Q1270.5610786635482 528.6108321461472 1278.1556292467594 524.8593071592597Q1285.7196796268252 521.1382823755177 1290.1117088797664 514.0927354489243ZM1357.7611594563227 477.64499269013953L1357.7611594563227 477.64499269013953Q1376.4272837813237 508.1756960387115 1387.4073569136772 521.5652852195537L1387.4073569136772 521.5652852195537Q1393.7818993710712 528.366830520984 1401.0104475165376 528.366830520984L1401.0104475165376 528.366830520984Q1403.2064621430081 528.366830520984 1405.188975347461 527.939827676948L1405.188975347461 527.939827676948Q1406.7139855047321 530.3493437254366 1406.7139855047321 533.2163628211067L1406.7139855047321 533.2163628211067Q1406.7139855047321 536.7238861828307 1403.2064621430081 538.7063993872835Q1399.6989387812841 540.6889125917362 1394.6359050591432 540.6889125917362L1394.6359050591432 540.6889125917362Q1384.1133349739712 540.6889125917362 1376.2137823593057 531.9048540858533L1376.2137823593057 531.9048540858533Q1372.6757587944362 527.939827676948 1368.1922289320587 521.7787866415717Q1363.6781988665352 515.648245809341 1360.5061777394112 510.9207143217999Q1357.3036564091412 506.1931828342588 1352.0576214681278 498.29363021959335Q1346.7810863239692 490.3940776049279 1345.0120745415343 487.52705850925776L1345.0120745415343 487.52705850925776L1343.4870643842628 488.6250658224931L1343.4870643842628 504.2106696298061Q1343.4870643842628 527.2688232077485 1346.9945877459872 538.0353949180841L1346.9945877459872 538.0353949180841Q1343.7005658062812 539.3469036533374 1337.3260233488868 539.3469036533374L1337.3260233488868 539.3469036533374Q1331.4089839386743 539.3469036533374 1329.3044699216398 537.1508890268667Q1327.2304561077508 534.954874400396 1327.2304561077508 529.7088394593827L1327.2304561077508 529.7088394593827Q1327.2304561077508 527.0553217857305 1327.4439575297688 516.288750075395Q1327.6574589517868 505.55267856820484 1327.6574589517868 499.39163753282867L1327.6574589517868 499.39163753282867L1327.6574589517868 465.1399094005147Q1327.6574589517868 442.29525724459023 1326.3459502165333 425.6116461240419L1326.3459502165333 425.6116461240419Q1330.3109766254388 424.9406416548425 1334.7030058783803 424.9406416548425L1334.7030058783803 424.9406416548425Q1345.0120745415343 424.9406416548425 1345.0120745415343 431.52868553425463L1345.0120745415343 431.52868553425463Q1345.0120745415343 432.413191425472 1344.6765723069348 438.33023083568474Q1344.3715702754803 444.2777704490429 1343.9140672282988 453.61083261154346Q1343.4870643842628 462.94389477404394 1343.4870643842628 471.7279532799268L1343.4870643842628 471.7279532799268Q1356.8766535651052 462.27289030484457 1370.1747421365112 448.45629827996635Q1383.4423305047717 434.60920605194275 1386.5228510224597 425.1541430768605L1386.5228510224597 425.1541430768605Q1397.5029241548132 426.70965343727727 1397.5029241548132 432.840194269508L1397.5029241548132 432.840194269508Q1397.5029241548132 437.4762251476128 1385.0893414746247 451.4148179850727Q1372.6757587944362 465.3534108225327 1357.7611594563227 477.64499269013953ZM1445.1442414679696 437.9032279916488L1445.1442414679696 437.9032279916488Q1445.815245937169 443.1797631358076 1445.815245937169 471.9414547019448L1445.815245937169 471.9414547019448L1459.8758395872105 471.9414547019448Q1474.576937503306 471.9414547019448 1480.9514799607005 471.2704502327454L1480.9514799607005 471.2704502327454Q1481.6224844298995 473.03946201518016 1481.6224844298995 476.1199825328682L1481.6224844298995 476.1199825328682Q1481.6224844298995 480.51201178580965 1479.7314718348835 482.1590227556627Q1477.8709594430125 483.8060337255157 1473.9364332372525 484.0195351475337L1473.9364332372525 484.0195351475337Q1469.3004023591475 484.2330365695517 1461.400849744482 484.2330365695517L1461.400849744482 484.2330365695517L1445.815245937169 484.2330365695517Q1445.815245937169 519.582772015101 1447.1267546724225 526.8418203637125L1447.1267546724225 526.8418203637125Q1455.026307287088 527.2688232077485 1459.8758395872105 527.2688232077485L1459.8758395872105 527.2688232077485Q1488.851032575366 527.2688232077485 1497.8485925032664 523.3342970019885L1497.8485925032664 523.3342970019885Q1499.4041028636834 527.2688232077485 1499.4041028636834 531.66085246069L1499.4041028636834 531.66085246069Q1499.4041028636834 535.1988760255595 1497.635091081249 536.7238861828307L1497.635091081249 536.7238861828307Q1494.3410691415424 539.1334022313195 1467.7753922018765 539.1334022313195L1467.7753922018765 539.1334022313195Q1462.4988570577175 539.1334022313195 1450.87827965931 539.0419016218832Q1439.227202057757 538.9199008093015 1438.800199213721 538.9199008093015L1438.800199213721 538.9199008093015Q1433.310162647544 538.7063993872835 1431.4191500525276 536.5103847608127Q1429.5586376606566 534.314370134342 1429.5586376606566 529.2513364122012L1429.5586376606566 529.2513364122012Q1429.5586376606566 526.1708158945132 1429.7721390826746 515.7397464187773Q1430.016140707838 505.30867694304146 1430.016140707838 499.39163753282867L1430.016140707838 499.39163753282867L1430.016140707838 465.7804136665686Q1430.016140707838 440.77024708731886 1427.362623034186 426.49615201525927L1427.362623034186 426.49615201525927Q1448.895766454857 424.9406416548425 1467.561890779858 424.9406416548425L1467.561890779858 424.9406416548425Q1494.1275677195244 424.9406416548425 1497.4215896592304 427.59415932849464L1497.4215896592304 427.59415932849464Q1499.1906014416654 429.11916948576595 1499.1906014416654 432.62669284749L1499.1906014416654 432.62669284749Q1499.1906014416654 437.01872210043143 1497.635091081249 440.98374850933686L1497.635091081249 440.98374850933686Q1487.1125209960765 437.4762251476128 1464.694871684188 437.4762251476128L1464.694871684188 437.4762251476128Q1456.124314600323 437.4762251476128 1445.1442414679696 437.9032279916488ZM1545.7339114415863 499.39163753282867L1545.7339114415863 499.39163753282867L1545.7339114415863 465.1399094005147Q1545.7339114415863 455.0443421593785 1545.3069085975503 437.9032279916488L1545.3069085975503 437.9032279916488Q1519.5952373459559 437.9032279916488 1511.2686818872544 438.5742324608482L1511.2686818872544 438.5742324608482Q1510.811178840073 437.4762251476128 1510.811178840073 433.0841958946714L1510.811178840073 433.0841958946714Q1510.811178840073 429.11916948576595 1512.671691231944 427.59415932849464Q1514.5627038269604 426.0386489680779 1518.7107314547384 426.0386489680779L1518.7107314547384 426.0386489680779Q1520.4797432371734 426.0386489680779 1527.4032893511849 425.9471483586416Q1534.3268354651968 425.8251475460599 1538.7188647181383 425.8251475460599L1538.7188647181383 425.8251475460599L1560.0080065136463 425.8251475460599Q1589.2272011269647 425.8251475460599 1595.5712433812132 425.3981447020239L1595.5712433812132 425.3981447020239Q1596.0287464283947 427.59415932849464 1596.0287464283947 430.64417964303726L1596.0287464283947 430.64417964303726Q1596.0287464283947 437.9032279916488 1588.1291938137292 437.9032279916488L1588.1291938137292 437.9032279916488L1562.6310239841528 437.9032279916488Q1562.6310239841528 440.3127440401375 1562.3260219526983 446.138282840914Q1561.9905197180988 451.9638216416904 1561.7770182960808 458.09436247392114Q1561.5330166709173 464.2554035092973 1561.5330166709173 469.7454400754741L1561.5330166709173 469.7454400754741L1561.5330166709173 504.2106696298061Q1561.5330166709173 527.2688232077485 1565.0710402357868 538.0353949180841L1565.0710402357868 538.0353949180841Q1561.7770182960808 539.3469036533374 1555.4024758386863 539.3469036533374L1555.4024758386863 539.3469036533374Q1549.4549362253283 539.3469036533374 1547.3809224114393 537.1508890268667Q1545.3069085975503 534.954874400396 1545.3069085975503 529.7088394593827L1545.3069085975503 529.7088394593827Q1545.3069085975503 527.0553217857305 1545.5204100195683 516.288750075395Q1545.7339114415863 505.55267856820484 1545.7339114415863 499.39163753282867ZM1615.3353750194497 489.7230731357285L1615.3353750194497 489.7230731357285L1615.3353750194497 444.2777704490429Q1615.3353750194497 413.320064256435 1613.8103648621786 393.3119309930352L1613.8103648621786 393.3119309930352Q1617.5313896459202 392.6714267269813 1622.8079247900791 392.6714267269813L1622.8079247900791 392.6714267269813Q1633.5744965004146 392.6714267269813 1633.5744965004146 400.9979821856827L1633.5744965004146 400.9979821856827Q1633.5744965004146 402.33999112408145 1633.1474936563786 409.90404150414724Q1632.6899906091976 417.468091884213 1632.2629877651616 428.78366725116626Q1631.80548471798 440.0992426181195 1631.80548471798 450.1948098592557L1631.80548471798 450.1948098592557L1631.80548471798 469.95894149749205Q1631.80548471798 515.648245809341 1633.3609950783966 525.3168102064412L1633.3609950783966 525.3168102064412Q1642.5720564283156 525.7438130504772 1647.8485915724746 525.7438130504772L1647.8485915724746 525.7438130504772Q1682.1003197047885 525.7438130504772 1691.9823855239065 520.6807793283364L1691.9823855239065 520.6807793283364Q1693.5378958843235 525.3168102064412 1693.5378958843235 530.3493437254366L1693.5378958843235 530.3493437254366Q1693.5378958843235 534.314370134342 1691.5553826798705 536.0528817136315L1691.5553826798705 536.0528817136315Q1687.803857692983 539.3469036533374 1657.9441588136106 539.3469036533374L1657.9441588136106 539.3469036533374Q1631.591983295962 539.3469036533374 1625.0039394165497 538.9199008093015L1625.0039394165497 538.9199008093015Q1619.0869000063371 538.7063993872835 1616.9823859893027 535.8393802916135Q1614.9083721754137 533.0028613990887 1614.9083721754137 526.4148175196765L1614.9083721754137 526.4148175196765Q1614.9083721754137 522.8767939548071 1615.1218735974317 510.1582092431642Q1615.3353750194497 497.409124328376 1615.3353750194497 489.7230731357285ZM1715.040539101849 499.39163753282867L1715.040539101849 499.39163753282867L1715.040539101849 465.1399094005147Q1715.040539101849 442.29525724459023 1713.729030366596 425.6116461240419L1713.729030366596 425.6116461240419Q1717.694056775501 424.9406416548425 1722.0860860284424 424.9406416548425L1722.0860860284424 424.9406416548425Q1732.3951546915969 424.9406416548425 1732.3951546915969 431.52868553425463L1732.3951546915969 431.52868553425463Q1732.3951546915969 432.413191425472 1732.059652456997 438.33023083568474Q1731.7241502223974 444.2777704490429 1731.2971473783614 453.0618289549258Q1730.8701445343254 461.8458874608086 1730.8701445343254 469.7454400754741L1730.8701445343254 469.7454400754741L1730.8701445343254 504.2106696298061Q1730.8701445343254 527.2688232077485 1734.3776678960494 538.0353949180841L1734.3776678960494 538.0353949180841Q1731.0836459563434 539.3469036533374 1724.7091034989494 539.3469036533374L1724.7091034989494 539.3469036533374Q1718.7920640887364 539.3469036533374 1716.687550071702 537.1508890268667Q1714.613536257813 534.954874400396 1714.613536257813 529.7088394593827L1714.613536257813 529.7088394593827Q1714.613536257813 527.0553217857305 1714.827037679831 516.288750075395Q1715.040539101849 505.55267856820484 1715.040539101849 499.39163753282867ZM1827.4947880990367 450.1948098592557L1827.4947880990367 450.1948098592557Q1824.4142675813487 444.064269027025 1816.7282163887012 439.9772418055378Q1809.0421651960537 435.92071478719606 1800.6851095342067 435.92071478719606L1800.6851095342067 435.92071478719606Q1791.9010510283242 435.92071478719606 1785.6485093835113 440.4347448527192Q1779.3959677386988 444.9182747150969 1779.3959677386988 453.4888317989617L1779.3959677386988 453.4888317989617Q1779.3959677386988 460.2903771003919 1784.0014984136587 464.590905743897Q1788.6070290886178 468.86093418425673 1795.5305752026297 470.6299459666914Q1802.4541213166412 472.3684575459808 1810.4756747438887 474.8084737976149Q1818.4667279679902 477.2179898461036 1825.3902740820022 479.96300812919196Q1832.3138201960141 482.7080264122804 1836.9193508709736 489.3875709011288Q1841.5248815459327 496.0976155931226 1841.5248815459327 505.97968141224084L1841.5248815459327 505.97968141224084Q1841.5248815459327 523.7612998460245 1829.1417990688897 532.1183555078715Q1816.7282163887012 540.4449109665727 1798.9465979549177 540.4449109665727L1798.9465979549177 540.4449109665727Q1784.4285012576947 540.4449109665727 1773.3569275159048 535.6258788695955Q1762.2548535709693 530.806846772618 1762.2548535709693 523.7612998460245L1762.2548535709693 523.7612998460245Q1762.2548535709693 518.2712632798477 1772.1369193900873 513.4522311828703L1772.1369193900873 513.4522311828703Q1775.6444427518118 520.0402750622825 1784.5505020702758 524.2188028932059Q1793.4565613887407 528.366830520984 1802.8811241606777 528.366830520984L1802.8811241606777 528.366830520984Q1812.5496885577777 528.366830520984 1819.6867360938077 523.6697992365882Q1826.8237836298372 518.942267749047 1826.8237836298372 510.1582092431642L1826.8237836298372 510.1582092431642Q1826.8237836298372 502.4721580505167 1820.4492411724432 497.9581279849936Q1814.0746987150492 493.47459812261593 1804.9856381777122 491.27858349614525Q1795.8660774372293 489.0825688696745 1786.7465166967468 486.0935489614227Q1777.6269559562643 483.13502925631633 1771.2524134988703 475.99798172028653Q1764.9083712446213 468.86093418425673 1764.9083712446213 457.2403567858492L1764.9083712446213 457.2403567858492Q1764.9083712446213 440.98374850933686 1776.1019457989928 432.413191425472Q1787.2955203533647 423.84263434160715 1804.6501359431122 423.84263434160715L1804.6501359431122 423.84263434160715Q1817.3687206547552 423.84263434160715 1828.0437917556546 428.1431629851123Q1838.6883626534081 432.413191425472 1838.6883626534081 440.0992426181195L1838.6883626534081 440.0992426181195Q1838.6883626534081 447.99879523278497 1827.4947880990367 450.1948098592557ZM1890.29470637547 499.39163753282867L1890.29470637547 499.39163753282867L1890.29470637547 465.1399094005147Q1890.29470637547 455.0443421593785 1889.8372033282885 437.9032279916488L1889.8372033282885 437.9032279916488Q1864.1560322798396 437.9032279916488 1855.7989766179926 438.5742324608482L1855.7989766179926 438.5742324608482Q1855.3719737739566 437.4762251476128 1855.3719737739566 433.0841958946714L1855.3719737739566 433.0841958946714Q1855.3719737739566 429.11916948576595 1857.2324861658276 427.59415932849464Q1859.0929985576986 426.0386489680779 1863.271526388622 426.0386489680779L1863.271526388622 426.0386489680779Q1865.040538171057 426.0386489680779 1871.9640842850686 425.9471483586416Q1878.857130195935 425.8251475460599 1883.2491594488765 425.8251475460599L1883.2491594488765 425.8251475460599L1904.5688014475295 425.8251475460599Q1933.757495857703 425.8251475460599 1940.132038315097 425.3981447020239L1940.132038315097 425.3981447020239Q1940.5895413622784 427.59415932849464 1940.5895413622784 430.64417964303726L1940.5895413622784 430.64417964303726Q1940.5895413622784 437.9032279916488 1932.6594885444674 437.9032279916488L1932.6594885444674 437.9032279916488L1907.1918189180365 437.9032279916488Q1907.1918189180365 440.3127440401375 1906.8563166834365 446.138282840914Q1906.551314651982 451.9638216416904 1906.307313026819 458.09436247392114Q1906.093811604801 464.2554035092973 1906.093811604801 469.7454400754741L1906.093811604801 469.7454400754741L1906.093811604801 504.2106696298061Q1906.093811604801 527.2688232077485 1909.601334966525 538.0353949180841L1909.601334966525 538.0353949180841Q1906.307313026819 539.3469036533374 1899.96327077257 539.3469036533374L1899.96327077257 539.3469036533374Q1894.015731159212 539.3469036533374 1891.941717345323 537.1508890268667Q1889.8372033282885 534.954874400396 1889.8372033282885 529.7088394593827L1889.8372033282885 529.7088394593827Q1889.8372033282885 527.0553217857305 1890.081204953452 516.288750075395Q1890.29470637547 505.55267856820484 1890.29470637547 499.39163753282867Z " fill="#b88746" transform="matrix(0.4508939170051367,0,0,0.4508939170051367,0,89.83114981564566)"/></g></svg>